HIERARCHY
ROOT Hips
{
	OFFSET 16.865883 106.896896 -0.624724
	CHANNELS 6 Xposition Yposition Zposition Xrotation Yrotation Zrotation
	JOINT Chest
	{
		OFFSET 1.972486 13.438766 1.289598
		CHANNELS 3 Xrotation Yrotation Zrotation
		JOINT Chest2
		{
			OFFSET 1.151285 21.070877 3.709337
			CHANNELS 3 Xrotation Yrotation Zrotation
			JOINT Chest3
			{
				OFFSET -1.419546 14.858932 0.129897
				CHANNELS 3 Xrotation Yrotation Zrotation
				JOINT Neck
				{
					OFFSET -0.287680 17.215637 1.468031
					CHANNELS 3 Xrotation Yrotation Zrotation
					JOINT Head
					{
						OFFSET -2.061100 9.943985 2.587814
						CHANNELS 3 Xrotation Yrotation Zrotation
						End Site
						{
							OFFSET -2.037405 9.965714 2.522160
						}
					}
				}
				JOINT LeftCollar
				{
					OFFSET 3.679491 12.993744 4.407752
					CHANNELS 3 Xrotation Yrotation Zrotation
					JOINT LeftUpArm
					{
						OFFSET 14.924099 9.258209 -0.236973
						CHANNELS 3 Xrotation Yrotation Zrotation
						JOINT LeftLowArm
						{
							OFFSET -4.843655 17.443817 28.495262
							CHANNELS 3 Xrotation Yrotation Zrotation
							JOINT LeftHand
							{
								OFFSET -23.699419 3.004913 18.172932
								CHANNELS 3 Xrotation Yrotation Zrotation
								End Site
								{
									OFFSET -5.179646 0.656754 3.971798
								}
							}
						}
					}
				}
				JOINT RightCollar
				{
					OFFSET -4.694251 12.926071 3.562217
					CHANNELS 3 Xrotation Yrotation Zrotation
					JOINT RightUpArm
					{
						OFFSET -15.237909 -0.975601 -8.680467
						CHANNELS 3 Xrotation Yrotation Zrotation
						JOINT RightLowArm
						{
							OFFSET -31.965469 -10.838379 -0.687366
							CHANNELS 3 Xrotation Yrotation Zrotation
							JOINT RightHand
							{
								OFFSET -28.157581 -8.480225 6.015855
								CHANNELS 3 Xrotation Yrotation Zrotation
								End Site
								{
									OFFSET -6.154133 -1.853394 1.314830
								}
							}
						}
					}
				}
			}
		}
	}
	JOINT LeftUpLeg
	{
		OFFSET 9.908503 -1.477554 0.239866
		CHANNELS 3 Xrotation Yrotation Zrotation
		JOINT LeftLowLeg
		{
			OFFSET 10.645983 -46.063030 2.974968
			CHANNELS 3 Xrotation Yrotation Zrotation
			JOINT LeftFoot
			{
				OFFSET 1.822014 -42.271698 -14.503531
				CHANNELS 3 Xrotation Yrotation Zrotation
				JOINT LeftToe
				{
					OFFSET 10.828758 -16.203663 13.406671
					CHANNELS 3 Xrotation Yrotation Zrotation
					End Site
					{
						OFFSET 12.150185 -1.844392 20.212128
					}
				}
			}
		}
	}
	JOINT RightUpLeg
	{
		OFFSET -9.908535 1.477364 -0.239885
		CHANNELS 3 Xrotation Yrotation Zrotation
		JOINT RightLowLeg
		{
			OFFSET -15.039567 -44.709354 4.347027
			CHANNELS 3 Xrotation Yrotation Zrotation
			JOINT RightFoot
			{
				OFFSET -10.970424 -40.488297 -15.521803
				CHANNELS 3 Xrotation Yrotation Zrotation
				JOINT RightToe
				{
					OFFSET -4.589083 -18.565620 13.921734
					CHANNELS 3 Xrotation Yrotation Zrotation
					End Site
					{
						OFFSET -3.748283 -5.310344 22.744379
					}
				}
			}
		}
	}
}
MOTION
Frames: 8
Frame Time: 0.033333
42.644920 105.707619 1.430885 12.695583 -3.658593 -36.598268 0.793515 -0.416616 4.098528 -0.424274 -1.928257 1.953498 -2.963382 11.393865 10.894799 -11.375082 3.912534 -5.959624 0.000003 -0.000003 -0.000002 -13.993135 9.662491 10.626990 -18.608647 22.763086 -7.893456 -18.576258 -2.806696 -14.451014 0.000002 -0.000002 -0.000001 -3.424485 -3.392347 9.878109 -3.198504 -7.517536 -5.134542 -4.870229 2.347225 -12.975150 0.000000 0.000001 -0.000001 -18.659771 -5.593317 30.332928 8.432892 0.974582 -2.986877 -6.660206 -0.279182 3.300902 -0.000000 0.000001 0.000000 1.623382 -2.986742 -40.165925 19.691029 -3.450970 -6.530115 12.244761 -4.699616 0.641849 0.000000 -0.000001 0.000001 
42.641235 105.715927 1.415618 13.297460 -4.281661 -36.764975 0.268838 -0.334342 4.109319 -0.148616 -1.943407 1.993057 -3.114669 11.709307 11.054379 -11.020409 3.741166 -5.865200 0.000001 0.000000 -0.000000 -14.502684 10.074808 10.418819 -18.625782 22.850729 -8.111519 -19.265281 -2.649953 -15.185022 0.000001 -0.000007 0.000002 -3.482574 -3.103995 9.978635 -3.376247 -7.487138 -5.280572 -4.825644 1.657593 -13.160677 0.000000 0.000002 -0.000001 -19.282396 -5.880967 30.117306 7.674213 0.715876 -2.281550 -5.634583 0.833382 3.134951 -0.000000 -0.000001 -0.000000 2.560081 -3.517952 -39.859280 17.680348 -2.797999 -6.620660 12.196257 -7.001372 -0.037945 0.000005 -0.000001 0.000001 
42.648594 105.716766 1.392919 13.031017 -4.256589 -37.014223 0.593274 -0.384365 4.118574 -0.286518 -2.003236 2.112002 -3.229364 11.505244 11.035931 -11.061420 3.797136 -5.881726 -0.000000 0.000001 -0.000000 -14.598360 10.177959 10.609803 -18.460620 22.872138 -8.233887 -18.571559 -3.099332 -14.597310 -0.000001 -0.000004 0.000000 -3.319126 -2.866289 9.980477 -3.241126 -7.802750 -5.081532 -4.696267 1.670067 -13.008206 0.000000 -0.000000 -0.000003 -19.065239 -5.703214 30.098646 7.660032 0.873333 -1.710191 -6.092809 -0.213011 2.949077 -0.000000 -0.000002 0.000000 2.486583 -3.590975 -39.880833 17.014384 -2.874652 -7.111924 11.222140 -6.973162 -0.255980 0.000001 -0.000001 0.000001 
42.669952 105.724823 1.367442 13.319905 -4.847183 -36.975905 0.582435 -0.390651 4.164713 -1.043505 -1.949705 1.967502 -2.456153 11.656025 11.073585 -12.007654 3.839110 -6.088816 0.000002 -0.000001 -0.000003 -14.811555 10.563933 10.351741 -18.447028 22.458615 -7.993071 -18.824044 -3.041531 -14.755780 0.000001 -0.000006 0.000002 -3.382475 -2.858406 10.278850 -3.243557 -7.782639 -5.145726 -4.646331 1.567692 -13.108376 0.000000 0.000000 -0.000001 -19.168043 -5.697622 30.070198 7.090638 0.869527 -1.731178 -6.074593 -0.050943 2.976070 -0.000000 0.000003 -0.000000 2.225778 -3.407759 -40.010517 16.508847 -2.745104 -7.061333 10.532018 -7.598381 -0.597449 0.000005 -0.000001 0.000002 
42.677654 105.732689 1.354423 13.009144 -5.140642 -37.182645 1.136409 -0.425351 4.026014 -0.872990 -1.899592 1.932171 -2.873184 12.180357 11.369372 -12.068750 3.764245 -6.081857 0.000002 -0.000001 -0.000003 -14.966585 10.705386 10.473868 -19.075890 22.985123 -7.742767 -18.715506 -3.186794 -14.560555 -0.000002 -0.000007 -0.000003 -3.201636 -2.614626 10.140086 -3.133201 -7.601382 -4.710257 -4.504578 1.545941 -13.229837 0.000000 0.000001 0.000001 -19.075103 -5.762353 30.466615 7.240304 0.819080 -2.065134 -5.983183 0.263948 3.005307 0.000000 -0.000002 -0.000000 1.600194 -2.898629 -40.060798 16.685389 -2.679755 -6.975834 9.884027 -8.148279 -0.886577 0.000000 -0.000001 0.000000 
42.704323 105.748169 1.336052 12.859570 -4.863154 -37.255499 1.450092 -0.457327 3.996824 -0.756301 -1.805855 1.817067 -3.027363 12.506833 11.623584 -12.153580 3.620043 -5.994610 0.000003 0.000000 -0.000002 -14.565580 10.291370 10.333358 -19.391575 23.178052 -7.512114 -18.667250 -2.876869 -14.563107 -0.000003 -0.000004 -0.000004 -3.116310 -2.350186 10.190822 -3.017523 -7.497039 -4.668347 -4.294156 0.779086 -13.555421 0.000000 0.000001 0.000001 -19.412304 -5.892582 30.417332 7.686940 0.882026 -2.071870 -5.962215 -0.291954 2.806138 -0.000000 -0.000001 -0.000000 1.386104 -2.733611 -40.003383 17.043854 -2.849296 -7.112659 9.825232 -8.216884 -0.983507 0.000000 -0.000000 0.000001 
42.726566 105.755440 1.319973 12.961888 -4.591149 -37.299970 1.387062 -0.433605 3.892462 -1.047659 -1.780633 1.752578 -2.732842 12.649141 11.684756 -12.032189 3.133945 -5.681423 0.000002 0.000000 -0.000002 -14.358979 10.058641 10.355877 -19.562266 22.828652 -7.159976 -19.098995 -2.239021 -15.049837 -0.000001 -0.000001 0.000000 -3.159725 -2.695175 10.334787 -2.959970 -7.230101 -4.812268 -4.119357 0.294197 -13.440257 0.000002 0.000000 0.000001 -19.536090 -5.990524 30.784117 8.052107 1.066779 -2.848899 -6.380665 -0.491988 2.997532 -0.000001 0.000003 0.000001 1.493965 -2.850453 -40.136712 17.166837 -2.996065 -6.694774 9.772630 -9.030802 -1.333735 -0.000001 -0.000001 0.000001 
42.762844 105.750496 1.307854 13.168343 -4.707806 -37.193119 0.909043 -0.358648 3.827607 -0.537049 -1.951770 1.999700 -2.862446 12.357979 11.411229 -11.442381 3.247921 -5.648589 -0.000001 -0.000001 -0.000003 -14.258823 9.641689 10.301482 -19.302970 22.289660 -7.458981 -17.556752 -1.684116 -14.914497 -0.000003 -0.000004 -0.000007 -3.419902 -2.884527 10.243600 -3.398701 -7.304722 -4.979856 -4.624510 0.294399 -13.027600 0.000001 -0.000000 -0.000001 -20.117475 -6.203876 30.690950 8.891835 0.974284 -3.151924 -6.733617 -0.164587 3.330828 -0.000000 -0.000001 0.000000 1.100345 -2.621951 -40.382728 18.172927 -3.125237 -6.303389 8.702709 -9.176078 -1.554453 0.000001 -0.000002 0.000001 
